<svg width="86" height="86" viewBox="0 0 86 86" fill="none" xmlns="http://www.w3.org/2000/svg">
<path fill-rule="evenodd" clip-rule="evenodd" d="M17.8007 60.5045L67.6055 24.9025L67.6793 25.0058C67.6549 24.9713 67.6304 24.9369 67.6058 24.9025C57.7745 11.1492 38.6555 7.96983 24.9022 17.8011C11.149 27.6323 7.96957 46.7513 17.8007 60.5045Z" fill="#C4C4C4"/>
<path fill-rule="evenodd" clip-rule="evenodd" d="M67.6054 24.9025L17.8005 60.5047L17.7768 60.4716C17.7846 60.4826 17.7925 60.4937 17.8005 60.5047C27.6317 74.258 46.7508 77.4374 60.504 67.6061C74.2573 57.7748 77.4367 38.6558 67.6054 24.9025Z" fill="#F8F8F8"/>
<path d="M26.4001 59.0809C26.4001 61.4394 24.4882 63.3513 22.1297 63.3513C19.7713 63.3513 17.8594 61.4394 17.8594 59.0809C17.8594 56.7224 19.7713 54.8105 22.1297 54.8105C24.4882 54.8105 26.4001 56.7224 26.4001 59.0809Z" fill="#C4C4C4"/>
<path d="M68.322 27.2469C68.322 29.6054 66.4101 31.5173 64.0516 31.5173C61.6932 31.5173 59.7812 29.6054 59.7812 27.2469C59.7812 24.8885 61.6932 22.9766 64.0516 22.9766C66.4101 22.9766 68.322 24.8885 68.322 27.2469Z" fill="#C4C4C4"/>
<path fill-rule="evenodd" clip-rule="evenodd" d="M24.1866 55.9404C31.4971 66.1672 45.7138 68.5313 55.9406 61.2209C66.1674 53.9105 68.5315 39.6937 61.2211 29.4669C53.9107 19.2402 39.6939 16.876 29.4671 24.1864C19.2404 31.4969 16.8762 45.7136 24.1866 55.9404Z" fill="white"/>
</svg>
