<svg width="35" height="35" viewBox="0 0 35 35" fill="none" xmlns="http://www.w3.org/2000/svg">
<path fill-rule="evenodd" clip-rule="evenodd" d="M7.16933 24.3748L27.2336 10.0322L27.275 10.0902C27.2614 10.0708 27.2476 10.0515 27.2339 10.0322C23.2732 4.49158 15.5709 3.21073 10.0303 7.17136C4.48967 11.132 3.2088 18.8342 7.16933 24.3748Z" fill="#2F80ED"/>
<path fill-rule="evenodd" clip-rule="evenodd" d="M7.17233 24.3749C7.17235 24.3749 7.17237 24.375 7.17239 24.375C11.133 29.9156 18.8353 31.1965 24.376 27.2359C29.9166 23.2752 31.1975 15.5729 27.2368 10.0323C27.225 10.0158 27.2132 9.99931 27.2013 9.98288L27.2367 10.0323L7.17233 24.3749Z" fill="#F8F8F8"/>
<path d="M10.4407 23.7204C10.4407 24.6705 9.67048 25.4407 8.72036 25.4407C7.77023 25.4407 7 24.6705 7 23.7204C7 22.7702 7.77023 22 8.72036 22C9.67048 22 10.4407 22.7702 10.4407 23.7204Z" fill="#2F80ED"/>
<path d="M27.5266 10.9767C27.5266 11.9268 26.7564 12.6971 25.8063 12.6971C24.8562 12.6971 24.0859 11.9268 24.0859 10.9767C24.0859 10.0266 24.8562 9.25635 25.8063 9.25635C26.7564 9.25635 27.5266 10.0266 27.5266 10.9767Z" fill="#2F80ED"/>
<path fill-rule="evenodd" clip-rule="evenodd" d="M9.74096 22.5361C12.686 26.6561 18.4134 27.6085 22.5334 24.6634C26.6533 21.7183 27.6058 15.991 24.6607 11.871C21.7156 7.75103 15.9882 6.7986 11.8683 9.74368C7.7483 12.6888 6.79587 18.4161 9.74096 22.5361Z" fill="#E9F3FF"/>
</svg>
