<svg width="68" height="68" viewBox="0 0 68 68" fill="none" xmlns="http://www.w3.org/2000/svg">
<path d="M68 34C68 52.7777 52.7777 68 34 68C15.2223 68 0 52.7777 0 34C0 15.2223 15.2223 0 34 0C52.7777 0 68 15.2223 68 34Z" fill="#2F80ED"/>
<path fill-rule="evenodd" clip-rule="evenodd" d="M37.4427 18.3361C38.3618 18.9488 38.6101 20.1906 37.9974 21.1096L30.737 32.0002H41C41.7376 32.0002 42.4153 32.4062 42.7634 33.0565C43.1114 33.7068 43.0732 34.4959 42.6641 35.1096L33.3308 49.1096C32.7181 50.0287 31.4763 50.277 30.5573 49.6643C29.6382 49.0516 29.3899 47.8099 30.0026 46.8908L37.263 36.0002H27C26.2624 36.0002 25.5847 35.5942 25.2367 34.9439C24.8886 34.2936 24.9268 33.5045 25.3359 32.8908L34.6692 18.8908C35.2819 17.9718 36.5237 17.7234 37.4427 18.3361Z" fill="white"/>
</svg>
